<?xml version="1.0" encoding="UTF-8"?>
<!-- Created by Makercase v3 -->
<svg width="183.00mm" height="131.00mm" viewBox="-5 -126 183.00 131.00" version="1.1" xmlns="http://www.w3.org/2000/svg" xmlns:xlink="http://www.w3.org/1999/xlink"><path d="M17.500 -2.500L17.500 -5.000L20.000 -5.000L20.000 -10.000L17.500 -10.000L17.500 -12.500L12.500 -12.500L12.500 -15.000L7.500 -15.000L7.500 -12.500L2.500 -12.500L2.500 -10.000L0.000 -10.000L0.000 -5.000L2.500 -5.000L2.500 -2.500L7.500 -2.500L7.500 0.000L12.500 0.000L12.500 -2.500L17.500 -2.500Z" fill="none" stroke="#ff0000" stroke-width="0.080"></path>
<path d="M40.500 -2.500L40.500 -5.000L43.000 -5.000L43.000 -10.000L40.500 -10.000L40.500 -12.500L35.500 -12.500L35.500 -15.000L30.500 -15.000L30.500 -12.500L25.500 -12.500L25.500 -10.000L23.000 -10.000L23.000 -5.000L25.500 -5.000L25.500 -2.500L30.500 -2.500L30.500 0.000L35.500 0.000L35.500 -2.500L40.500 -2.500Z" fill="none" stroke="#ff0000" stroke-width="0.080"></path>
<path d="M10.000 -20.500L10.000 -18.000L15.000 -18.000L15.000 -20.500L20.000 -20.500L20.000 -18.000L25.000 -18.000L25.000 -20.500L30.000 -20.500L30.000 -18.000L35.000 -18.000L35.000 -20.500L40.000 -20.500L40.000 -18.000L45.000 -18.000L45.000 -20.500L50.000 -20.500L50.000 -18.000L55.000 -18.000L55.000 -20.500L60.000 -20.500L60.000 -18.000L65.000 -18.000L65.000 -20.500L70.000 -20.500L70.000 -18.000L75.000 -18.000L75.000 -20.500L80.000 -20.500L80.000 -18.000L82.500 -18.000L85.000 -18.000L85.000 -20.500L85.000 -23.000L82.500 -23.000L82.500 -28.000L85.000 -28.000L85.000 -30.500L85.000 -33.000L82.500 -33.000L80.000 -33.000L80.000 -30.500L75.000 -30.500L75.000 -33.000L70.000 -33.000L70.000 -30.500L65.000 -30.500L65.000 -33.000L60.000 -33.000L60.000 -30.500L55.000 -30.500L55.000 -33.000L50.000 -33.000L50.000 -30.500L45.000 -30.500L45.000 -33.000L40.000 -33.000L40.000 -30.500L35.000 -30.500L35.000 -33.000L30.000 -33.000L30.000 -30.500L25.000 -30.500L25.000 -33.000L20.000 -33.000L20.000 -30.500L15.000 -30.500L15.000 -33.000L10.000 -33.000L10.000 -30.500L5.000 -30.500L5.000 -33.000L2.500 -33.000L0.000 -33.000L0.000 -30.500L0.000 -28.000L2.500 -28.000L2.500 -23.000L0.000 -23.000L0.000 -20.500L0.000 -18.000L2.500 -18.000L5.000 -18.000L5.000 -20.500L10.000 -20.500Z" fill="none" stroke="#ff0000" stroke-width="0.080"></path>
<path d="M98.000 -20.500L98.000 -18.000L103.000 -18.000L103.000 -20.500L108.000 -20.500L108.000 -18.000L113.000 -18.000L113.000 -20.500L118.000 -20.500L118.000 -18.000L123.000 -18.000L123.000 -20.500L128.000 -20.500L128.000 -18.000L133.000 -18.000L133.000 -20.500L138.000 -20.500L138.000 -18.000L143.000 -18.000L143.000 -20.500L148.000 -20.500L148.000 -18.000L153.000 -18.000L153.000 -20.500L158.000 -20.500L158.000 -18.000L163.000 -18.000L163.000 -20.500L168.000 -20.500L168.000 -18.000L170.500 -18.000L173.000 -18.000L173.000 -20.500L173.000 -23.000L170.500 -23.000L170.500 -28.000L173.000 -28.000L173.000 -30.500L173.000 -33.000L170.500 -33.000L168.000 -33.000L168.000 -30.500L163.000 -30.500L163.000 -33.000L158.000 -33.000L158.000 -30.500L153.000 -30.500L153.000 -33.000L148.000 -33.000L148.000 -30.500L143.000 -30.500L143.000 -33.000L138.000 -33.000L138.000 -30.500L133.000 -30.500L133.000 -33.000L128.000 -33.000L128.000 -30.500L123.000 -30.500L123.000 -33.000L118.000 -33.000L118.000 -30.500L113.000 -30.500L113.000 -33.000L108.000 -33.000L108.000 -30.500L103.000 -30.500L103.000 -33.000L98.000 -33.000L98.000 -30.500L93.000 -30.500L93.000 -33.000L90.500 -33.000L88.000 -33.000L88.000 -30.500L88.000 -28.000L90.500 -28.000L90.500 -23.000L88.000 -23.000L88.000 -20.500L88.000 -18.000L90.500 -18.000L93.000 -18.000L93.000 -20.500L98.000 -20.500Z" fill="none" stroke="#ff0000" stroke-width="0.080"></path>
<path d="M12.500 -38.500L12.500 -36.000L17.500 -36.000L17.500 -38.500L17.500 -41.000L20.000 -41.000L20.000 -46.000L17.500 -46.000L17.500 -51.000L20.000 -51.000L20.000 -56.000L17.500 -56.000L17.500 -61.000L20.000 -61.000L20.000 -66.000L17.500 -66.000L17.500 -71.000L20.000 -71.000L20.000 -76.000L17.500 -76.000L17.500 -81.000L20.000 -81.000L20.000 -86.000L17.500 -86.000L17.500 -91.000L20.000 -91.000L20.000 -96.000L17.500 -96.000L17.500 -101.000L20.000 -101.000L20.000 -106.000L17.500 -106.000L17.500 -111.000L20.000 -111.000L20.000 -116.000L17.500 -116.000L17.500 -118.500L17.500 -121.000L12.500 -121.000L12.500 -118.500L7.500 -118.500L7.500 -121.000L2.500 -121.000L2.500 -118.500L2.500 -116.000L0.000 -116.000L0.000 -111.000L2.500 -111.000L2.500 -106.000L0.000 -106.000L0.000 -101.000L2.500 -101.000L2.500 -96.000L0.000 -96.000L0.000 -91.000L2.500 -91.000L2.500 -86.000L0.000 -86.000L0.000 -81.000L2.500 -81.000L2.500 -76.000L0.000 -76.000L0.000 -71.000L2.500 -71.000L2.500 -66.000L0.000 -66.000L0.000 -61.000L2.500 -61.000L2.500 -56.000L0.000 -56.000L0.000 -51.000L2.500 -51.000L2.500 -46.000L0.000 -46.000L0.000 -41.000L2.500 -41.000L2.500 -38.500L2.500 -36.000L7.500 -36.000L7.500 -38.500L12.500 -38.500Z" fill="none" stroke="#ff0000" stroke-width="0.080"></path>
<path d="M35.500 -38.500L35.500 -36.000L40.500 -36.000L40.500 -38.500L40.500 -41.000L43.000 -41.000L43.000 -46.000L40.500 -46.000L40.500 -51.000L43.000 -51.000L43.000 -56.000L40.500 -56.000L40.500 -61.000L43.000 -61.000L43.000 -66.000L40.500 -66.000L40.500 -71.000L43.000 -71.000L43.000 -76.000L40.500 -76.000L40.500 -81.000L43.000 -81.000L43.000 -86.000L40.500 -86.000L40.500 -91.000L43.000 -91.000L43.000 -96.000L40.500 -96.000L40.500 -101.000L43.000 -101.000L43.000 -106.000L40.500 -106.000L40.500 -111.000L43.000 -111.000L43.000 -116.000L40.500 -116.000L40.500 -118.500L40.500 -121.000L35.500 -121.000L35.500 -118.500L30.500 -118.500L30.500 -121.000L25.500 -121.000L25.500 -118.500L25.500 -116.000L23.000 -116.000L23.000 -111.000L25.500 -111.000L25.500 -106.000L23.000 -106.000L23.000 -101.000L25.500 -101.000L25.500 -96.000L23.000 -96.000L23.000 -91.000L25.500 -91.000L25.500 -86.000L23.000 -86.000L23.000 -81.000L25.500 -81.000L25.500 -76.000L23.000 -76.000L23.000 -71.000L25.500 -71.000L25.500 -66.000L23.000 -66.000L23.000 -61.000L25.500 -61.000L25.500 -56.000L23.000 -56.000L23.000 -51.000L25.500 -51.000L25.500 -46.000L23.000 -46.000L23.000 -41.000L25.500 -41.000L25.500 -38.500L25.500 -36.000L30.500 -36.000L30.500 -38.500L35.500 -38.500Z" fill="none" stroke="#ff0000" stroke-width="0.080"></path></svg>