<?xml version="1.0" encoding="UTF-8"?>
<!-- Created by Makercase v3 -->
<svg width="123.00mm" height="133.73mm" viewBox="-5 -128.734375 123.00 133.73" version="1.1" xmlns="http://www.w3.org/2000/svg" xmlns:xlink="http://www.w3.org/1999/xlink"><path d="M21.820 -2.500L21.820 0.000L30.311 0.000L30.311 -2.500L30.311 -10.500L34.641 -10.500L34.641 -19.500L30.311 -19.500L30.311 -27.500L30.311 -30.000L21.820 -30.000L21.820 -27.500L12.820 -27.500L12.820 -30.000L4.330 -30.000L4.330 -27.500L0.000 -27.500L0.000 -19.500L4.330 -19.500L4.330 -10.500L0.000 -10.500L0.000 -2.500L4.330 -2.500L4.330 0.000L12.820 0.000L12.820 -2.500L21.820 -2.500Z" fill="none" stroke="#ff0000" stroke-width="0.080"></path>
<path d="M59.461 -2.500L59.461 0.000L67.951 0.000L67.951 -2.500L67.951 -10.500L72.281 -10.500L72.281 -19.500L67.951 -19.500L67.951 -27.500L67.951 -30.000L59.461 -30.000L59.461 -27.500L50.461 -27.500L50.461 -30.000L41.971 -30.000L41.971 -27.500L37.641 -27.500L37.641 -19.500L41.971 -19.500L41.971 -10.500L37.641 -10.500L37.641 -2.500L41.971 -2.500L41.971 0.000L50.461 0.000L50.461 -2.500L59.461 -2.500Z" fill="none" stroke="#ff0000" stroke-width="0.080"></path>
<path d="M97.102 -2.500L97.102 0.000L105.592 0.000L105.592 -2.500L105.592 -10.500L109.922 -10.500L109.922 -19.500L105.592 -19.500L105.592 -27.500L105.592 -30.000L97.102 -30.000L97.102 -27.500L88.102 -27.500L88.102 -30.000L79.611 -30.000L79.611 -27.500L75.281 -27.500L75.281 -19.500L79.611 -19.500L79.611 -10.500L75.281 -10.500L75.281 -2.500L79.611 -2.500L79.611 0.000L88.102 0.000L88.102 -2.500L97.102 -2.500Z" fill="none" stroke="#ff0000" stroke-width="0.080"></path>
<path d="M21.820 -35.500L21.820 -33.000L30.311 -33.000L30.311 -35.500L30.311 -43.500L34.641 -43.500L34.641 -52.500L30.311 -52.500L30.311 -60.500L30.311 -63.000L21.820 -63.000L21.820 -60.500L12.820 -60.500L12.820 -63.000L4.330 -63.000L4.330 -60.500L0.000 -60.500L0.000 -52.500L4.330 -52.500L4.330 -43.500L0.000 -43.500L0.000 -35.500L4.330 -35.500L4.330 -33.000L12.820 -33.000L12.820 -35.500L21.820 -35.500Z" fill="none" stroke="#ff0000" stroke-width="0.080"></path>
<path d="M59.461 -35.500L59.461 -33.000L67.951 -33.000L67.951 -35.500L67.951 -43.500L72.281 -43.500L72.281 -52.500L67.951 -52.500L67.951 -60.500L67.951 -63.000L59.461 -63.000L59.461 -60.500L50.461 -60.500L50.461 -63.000L41.971 -63.000L41.971 -60.500L37.641 -60.500L37.641 -52.500L41.971 -52.500L41.971 -43.500L37.641 -43.500L37.641 -35.500L41.971 -35.500L41.971 -33.000L50.461 -33.000L50.461 -35.500L59.461 -35.500Z" fill="none" stroke="#ff0000" stroke-width="0.080"></path>
<path d="M97.102 -35.500L97.102 -33.000L105.592 -33.000L105.592 -35.500L105.592 -43.500L109.922 -43.500L109.922 -52.500L105.592 -52.500L105.592 -60.500L105.592 -63.000L97.102 -63.000L97.102 -60.500L88.102 -60.500L88.102 -63.000L79.611 -63.000L79.611 -60.500L75.281 -60.500L75.281 -52.500L79.611 -52.500L79.611 -43.500L75.281 -43.500L75.281 -35.500L79.611 -35.500L79.611 -33.000L88.102 -33.000L88.102 -35.500L97.102 -35.500Z" fill="none" stroke="#ff0000" stroke-width="0.080"></path>
<path d="M37.354 -68.802L45.147 -73.302L43.896 -75.468L52.500 -80.434L52.500 -90.367L55.000 -90.367L55.000 -99.367L52.500 -99.367L52.500 -109.301L43.896 -114.268L45.146 -116.433L37.353 -120.933L36.102 -118.768L27.500 -123.734L18.897 -118.767L17.646 -120.933L9.853 -116.433L11.104 -114.267L2.500 -109.301L2.500 -99.367L0.000 -99.367L0.000 -90.367L2.500 -90.367L2.500 -80.434L11.104 -75.467L9.854 -73.302L17.647 -68.802L18.898 -70.967L27.500 -66.000L36.103 -70.968L37.354 -68.802Z" fill="none" stroke="#ff0000" stroke-width="0.080"></path>
<path d="M95.354 -68.802L103.147 -73.302L101.896 -75.468L110.500 -80.434L110.500 -90.367L113.000 -90.367L113.000 -99.367L110.500 -99.367L110.500 -109.301L101.896 -114.268L103.146 -116.433L95.353 -120.933L94.102 -118.768L85.500 -123.734L76.897 -118.767L75.646 -120.933L67.853 -116.433L69.104 -114.267L60.500 -109.301L60.500 -99.367L58.000 -99.367L58.000 -90.367L60.500 -90.367L60.500 -80.434L69.104 -75.467L67.854 -73.302L75.647 -68.802L76.898 -70.967L85.500 -66.000L94.103 -70.968L95.354 -68.802Z" fill="none" stroke="#ff0000" stroke-width="0.080"></path></svg>