<?xml version="1.0" encoding="UTF-8"?>
<!-- Created by Makercase v3 -->
<svg width="153.00mm" height="266.00mm" viewBox="-5 -261 153.00 266.00" version="1.1" xmlns="http://www.w3.org/2000/svg" xmlns:xlink="http://www.w3.org/1999/xlink"><path d="M16.500 -2.500L16.500 0.000L25.500 0.000L25.500 -2.500L34.500 -2.500L34.500 0.000L43.500 0.000L43.500 -2.500L52.500 -2.500L52.500 0.000L57.500 0.000L57.500 -2.500L57.500 -13.500L60.000 -13.500L60.000 -22.500L57.500 -22.500L57.500 -31.500L60.000 -31.500L60.000 -40.500L57.500 -40.500L57.500 -49.500L60.000 -49.500L60.000 -58.500L57.500 -58.500L57.500 -67.500L60.000 -67.500L60.000 -76.500L57.500 -76.500L57.500 -87.500L57.500 -90.000L52.500 -90.000L52.500 -87.500L43.500 -87.500L43.500 -90.000L34.500 -90.000L34.500 -87.500L25.500 -87.500L25.500 -90.000L16.500 -90.000L16.500 -87.500L7.500 -87.500L7.500 -90.000L2.500 -90.000L2.500 -87.500L2.500 -76.500L0.000 -76.500L0.000 -67.500L2.500 -67.500L2.500 -58.500L0.000 -58.500L0.000 -49.500L2.500 -49.500L2.500 -40.500L0.000 -40.500L0.000 -31.500L2.500 -31.500L2.500 -22.500L0.000 -22.500L0.000 -13.500L2.500 -13.500L2.500 -2.500L2.500 0.000L7.500 0.000L7.500 -2.500L16.500 -2.500Z" fill="none" stroke="#ff0000" stroke-width="0.080"></path>
<path d="M79.500 -2.500L79.500 0.000L88.500 0.000L88.500 -2.500L97.500 -2.500L97.500 0.000L106.500 0.000L106.500 -2.500L115.500 -2.500L115.500 0.000L120.500 0.000L120.500 -2.500L120.500 -13.500L123.000 -13.500L123.000 -22.500L120.500 -22.500L120.500 -31.500L123.000 -31.500L123.000 -40.500L120.500 -40.500L120.500 -49.500L123.000 -49.500L123.000 -58.500L120.500 -58.500L120.500 -67.500L123.000 -67.500L123.000 -76.500L120.500 -76.500L120.500 -87.500L120.500 -90.000L115.500 -90.000L115.500 -87.500L106.500 -87.500L106.500 -90.000L97.500 -90.000L97.500 -87.500L88.500 -87.500L88.500 -90.000L79.500 -90.000L79.500 -87.500L70.500 -87.500L70.500 -90.000L65.500 -90.000L65.500 -87.500L65.500 -76.500L63.000 -76.500L63.000 -67.500L65.500 -67.500L65.500 -58.500L63.000 -58.500L63.000 -49.500L65.500 -49.500L65.500 -40.500L63.000 -40.500L63.000 -31.500L65.500 -31.500L65.500 -22.500L63.000 -22.500L63.000 -13.500L65.500 -13.500L65.500 -2.500L65.500 0.000L70.500 0.000L70.500 -2.500L79.500 -2.500Z" fill="none" stroke="#ff0000" stroke-width="0.080"></path>
<path d="M21.500 -95.500L21.500 -93.000L30.500 -93.000L30.500 -95.500L39.500 -95.500L39.500 -93.000L48.500 -93.000L48.500 -95.500L57.500 -95.500L57.500 -93.000L67.500 -93.000L70.000 -93.000L70.000 -95.500L70.000 -106.500L67.500 -106.500L67.500 -115.500L70.000 -115.500L70.000 -124.500L67.500 -124.500L67.500 -133.500L70.000 -133.500L70.000 -142.500L67.500 -142.500L67.500 -151.500L70.000 -151.500L70.000 -160.500L67.500 -160.500L67.500 -169.500L70.000 -169.500L70.000 -180.500L70.000 -183.000L67.500 -183.000L57.500 -183.000L57.500 -180.500L48.500 -180.500L48.500 -183.000L39.500 -183.000L39.500 -180.500L30.500 -180.500L30.500 -183.000L21.500 -183.000L21.500 -180.500L12.500 -180.500L12.500 -183.000L2.500 -183.000L0.000 -183.000L0.000 -180.500L0.000 -169.500L2.500 -169.500L2.500 -160.500L0.000 -160.500L0.000 -151.500L2.500 -151.500L2.500 -142.500L0.000 -142.500L0.000 -133.500L2.500 -133.500L2.500 -124.500L0.000 -124.500L0.000 -115.500L2.500 -115.500L2.500 -106.500L0.000 -106.500L0.000 -95.500L0.000 -93.000L2.500 -93.000L12.500 -93.000L12.500 -95.500L21.500 -95.500Z" fill="none" stroke="#ff0000" stroke-width="0.080"></path>
<path d="M94.500 -95.500L94.500 -93.000L103.500 -93.000L103.500 -95.500L112.500 -95.500L112.500 -93.000L121.500 -93.000L121.500 -95.500L130.500 -95.500L130.500 -93.000L140.500 -93.000L143.000 -93.000L143.000 -95.500L143.000 -106.500L140.500 -106.500L140.500 -115.500L143.000 -115.500L143.000 -124.500L140.500 -124.500L140.500 -133.500L143.000 -133.500L143.000 -142.500L140.500 -142.500L140.500 -151.500L143.000 -151.500L143.000 -160.500L140.500 -160.500L140.500 -169.500L143.000 -169.500L143.000 -180.500L143.000 -183.000L140.500 -183.000L130.500 -183.000L130.500 -180.500L121.500 -180.500L121.500 -183.000L112.500 -183.000L112.500 -180.500L103.500 -180.500L103.500 -183.000L94.500 -183.000L94.500 -180.500L85.500 -180.500L85.500 -183.000L75.500 -183.000L73.000 -183.000L73.000 -180.500L73.000 -169.500L75.500 -169.500L75.500 -160.500L73.000 -160.500L73.000 -151.500L75.500 -151.500L75.500 -142.500L73.000 -142.500L73.000 -133.500L75.500 -133.500L75.500 -124.500L73.000 -124.500L73.000 -115.500L75.500 -115.500L75.500 -106.500L73.000 -106.500L73.000 -95.500L73.000 -93.000L75.500 -93.000L85.500 -93.000L85.500 -95.500L94.500 -95.500Z" fill="none" stroke="#ff0000" stroke-width="0.080"></path>
<path d="M25.500 -188.500L25.500 -186.000L34.500 -186.000L34.500 -188.500L43.500 -188.500L43.500 -186.000L52.500 -186.000L52.500 -188.500L57.500 -188.500L57.500 -198.500L60.000 -198.500L60.000 -207.500L57.500 -207.500L57.500 -216.500L60.000 -216.500L60.000 -225.500L57.500 -225.500L57.500 -234.500L60.000 -234.500L60.000 -243.500L57.500 -243.500L57.500 -253.500L52.500 -253.500L52.500 -256.000L43.500 -256.000L43.500 -253.500L34.500 -253.500L34.500 -256.000L25.500 -256.000L25.500 -253.500L16.500 -253.500L16.500 -256.000L7.500 -256.000L7.500 -253.500L2.500 -253.500L2.500 -243.500L0.000 -243.500L0.000 -234.500L2.500 -234.500L2.500 -225.500L0.000 -225.500L0.000 -216.500L2.500 -216.500L2.500 -207.500L0.000 -207.500L0.000 -198.500L2.500 -198.500L2.500 -188.500L7.500 -188.500L7.500 -186.000L16.500 -186.000L16.500 -188.500L25.500 -188.500Z" fill="none" stroke="#ff0000" stroke-width="0.080"></path>
<path d="M88.500 -188.500L88.500 -186.000L97.500 -186.000L97.500 -188.500L106.500 -188.500L106.500 -186.000L115.500 -186.000L115.500 -188.500L120.500 -188.500L120.500 -198.500L123.000 -198.500L123.000 -207.500L120.500 -207.500L120.500 -216.500L123.000 -216.500L123.000 -225.500L120.500 -225.500L120.500 -234.500L123.000 -234.500L123.000 -243.500L120.500 -243.500L120.500 -253.500L115.500 -253.500L115.500 -256.000L106.500 -256.000L106.500 -253.500L97.500 -253.500L97.500 -256.000L88.500 -256.000L88.500 -253.500L79.500 -253.500L79.500 -256.000L70.500 -256.000L70.500 -253.500L65.500 -253.500L65.500 -243.500L63.000 -243.500L63.000 -234.500L65.500 -234.500L65.500 -225.500L63.000 -225.500L63.000 -216.500L65.500 -216.500L65.500 -207.500L63.000 -207.500L63.000 -198.500L65.500 -198.500L65.500 -188.500L70.500 -188.500L70.500 -186.000L79.500 -186.000L79.500 -188.500L88.500 -188.500Z" fill="none" stroke="#ff0000" stroke-width="0.080"></path></svg>